<svg version="1.1" id="Layer_1" xmlns="http://www.w3.org/2000/svg" xmlns:xlink="http://www.w3.org/1999/xlink" x="0px" y="0px"
	 width="100%" viewBox="0 0 1776 435" enable-background="new 0 0 1776 435" xml:space="preserve">
<path fill="#FFFFFF" opacity="1.000000" stroke="none" 
	d="
M1777.000000,273.000000 
	C1777.000000,327.321320 1777.000000,381.642639 1777.000000,436.000000 
	C1210.637329,436.000000 644.274597,436.000000 77.583176,435.632935 
	C254.330292,386.718994 432.501648,384.950348 611.461060,422.537140 
	C611.024048,422.224670 610.456482,421.573059 609.753601,421.351898 
	C587.048096,414.207825 564.402161,406.859680 541.579529,400.109344 
	C531.553223,397.143860 531.388489,397.702576 531.997070,387.338654 
	C532.016541,387.006470 531.959534,386.666504 532.005920,386.339722 
	C533.216187,377.803284 534.280518,369.242340 535.692322,360.739136 
	C537.485718,349.937134 539.562195,339.182098 541.349976,329.325806 
	C530.876465,322.056152 519.976685,315.561005 510.353973,307.534698 
	C498.877197,297.961914 489.040833,286.582092 481.891632,273.271820 
	C479.065338,268.009735 475.506348,262.395752 475.127228,256.750793 
	C474.638367,249.472229 477.102966,242.015167 478.122803,234.611176 
	C480.144501,219.934433 482.849243,205.286057 483.672119,190.536728 
	C484.103119,182.810532 481.146149,174.895340 479.716003,167.047699 
	C479.033966,167.047699 479.733063,166.883041 480.317383,167.072433 
	C488.865112,169.843155 497.303497,173.002594 505.956116,175.386185 
	C518.300415,178.786758 531.010315,179.390106 543.486450,176.679306 
	C572.717651,170.328018 588.341980,147.111313 591.730591,120.989296 
	C594.870667,96.783112 585.563843,76.847733 565.234009,62.835640 
	C549.297424,51.851528 532.363159,49.701672 513.993469,57.230206 
	C506.965912,60.110352 498.934143,60.617771 491.312012,61.927265 
	C488.655884,62.383595 485.855499,62.000000 482.546875,62.000000 
	C483.199005,63.630409 483.358093,64.625137 483.907104,65.304985 
	C487.782654,70.104286 493.236176,71.917496 499.015259,71.904167 
	C512.272949,71.873596 525.549561,70.738663 538.780151,71.185593 
	C549.641968,71.552498 559.031738,76.846443 566.679993,84.402458 
	C578.213806,95.797234 577.369507,111.189163 574.264709,124.361671 
	C567.800781,151.785980 544.568726,159.747635 522.322632,155.559418 
	C506.779968,152.633255 492.784210,145.533783 479.867859,136.402985 
	C471.667908,130.606308 463.826599,124.189827 455.176758,119.166565 
	C439.348297,109.974449 421.597168,106.166733 403.628357,105.287186 
	C388.857025,104.564163 373.937103,106.013283 359.129486,107.120781 
	C342.168335,108.389343 325.288116,110.885620 308.316132,111.813232 
	C296.614563,112.452782 284.808990,111.499367 273.064972,110.940987 
	C265.376495,110.575417 257.598053,110.261230 250.065903,108.835609 
	C234.840103,105.953804 219.523056,103.129860 204.666046,98.824425 
	C183.049866,92.560249 162.917633,83.805901 154.279709,60.021130 
	C152.364273,54.746922 150.445908,48.937550 144.179565,45.888985 
	C140.971725,44.328377 139.344559,39.798546 136.520645,37.119003 
	C126.093529,27.224922 114.668846,18.936371 99.951385,16.473000 
	C101.838326,11.135335 103.865654,6.050140 100.000000,1.000000 
	C659.000000,1.000000 1218.000000,1.000000 1777.000000,1.000000 
	C1777.000000,40.105999 1777.000000,79.097046 1776.531372,118.544052 
	C1765.798096,119.000000 1755.533447,119.000000 1744.856812,119.000000 
	C1744.856812,133.278656 1744.856812,147.013229 1744.856812,161.000000 
	C1727.639038,161.000000 1710.841431,160.978729 1694.044189,161.031601 
	C1692.286255,161.037125 1690.480347,161.296509 1688.780518,161.751450 
	C1677.978882,164.642532 1672.218506,174.439728 1672.071777,185.280396 
	C1671.814819,204.265640 1671.941162,223.257187 1672.045410,242.245346 
	C1672.068726,246.487457 1672.473267,250.751968 1673.035156,254.961716 
	C1674.365601,264.928436 1683.620483,272.990845 1693.549561,272.995483 
	C1721.366333,273.008453 1749.183228,273.000000 1777.000000,273.000000 
M939.000000,173.510376 
	C939.000000,169.409225 939.000000,165.308075 939.000000,161.000870 
	C909.756104,161.000870 881.111084,160.997421 852.466003,161.018707 
	C851.666992,161.019302 850.830994,161.177933 850.074829,161.441925 
	C837.362000,165.879593 833.454712,174.150696 833.125427,186.911911 
	C832.639771,205.732513 832.696655,224.581268 833.089844,243.406189 
	C833.446289,260.474762 842.439392,269.536865 859.485168,269.962158 
	C868.146362,270.178284 876.817383,270.000000 885.483948,270.000000 
	C892.250610,270.000000 899.017273,270.000000 905.686035,270.000000 
	C905.686035,277.003601 905.686035,283.407928 905.686035,290.000000 
	C903.723816,290.000000 902.074341,290.000000 900.424866,290.000000 
	C881.925049,290.000000 863.425110,289.968323 844.925781,290.064453 
	C843.552246,290.071594 841.314636,290.645508 840.949707,291.549683 
	C838.025696,298.793457 835.456116,306.180298 832.767090,313.553192 
	C833.612793,313.794434 833.930542,313.964325 834.248474,313.964539 
	C862.914734,313.984650 891.583069,314.159668 920.244507,313.791718 
	C923.915771,313.744507 928.027893,311.497040 931.100891,309.167572 
	C937.094543,304.624054 938.941833,297.722809 938.958313,290.506714 
	C939.046631,251.840668 939.000000,213.174316 939.000000,173.510376 
M962.000000,172.500000 
	C962.000000,205.917801 962.000000,239.335587 962.000000,272.699097 
	C973.314148,272.699097 984.047119,272.699097 995.191772,272.699097 
	C995.191772,243.671051 995.191772,214.941742 995.191772,186.315796 
	C1008.344788,186.315796 1021.077515,186.315796 1034.221558,186.315796 
	C1034.221558,215.358978 1034.221558,244.088287 1034.221558,272.668457 
	C1045.376343,272.668457 1056.110352,272.668457 1067.000000,272.668457 
	C1067.000000,245.693787 1067.047241,219.050171 1066.954956,192.407043 
	C1066.939087,187.829529 1066.763794,183.170532 1065.903198,178.695129 
	C1064.132812,169.490082 1055.829834,160.766235 1045.066772,160.945816 
	C1031.575806,161.170929 1018.078308,161.000000 1004.583679,161.000000 
	C1001.476074,161.000000 998.368469,161.000000 994.858459,161.000000 
	C994.858459,146.723846 994.858459,132.987289 994.858459,119.294647 
	C983.698608,119.294647 972.965820,119.294647 962.000000,119.294647 
	C962.000000,136.892151 962.000000,154.196075 962.000000,172.500000 
M1198.000000,205.500427 
	C1198.000000,199.070114 1198.000000,192.639786 1198.000000,186.312653 
	C1211.670654,186.312653 1224.737061,186.312653 1238.217285,186.312653 
	C1238.217285,215.354034 1238.217285,244.084732 1238.217285,272.668701 
	C1249.041504,272.668701 1259.442871,272.668701 1270.000000,272.668701 
	C1270.000000,242.526855 1270.193237,212.714066 1269.881592,182.906525 
	C1269.788696,174.024384 1263.362183,164.102066 1253.812622,161.946701 
	C1251.934814,161.522842 1250.010376,161.049057 1248.105713,161.040924 
	C1231.504761,160.970047 1214.903442,161.000000 1197.882080,161.000000 
	C1197.882080,146.748306 1197.882080,133.011093 1197.882080,119.284180 
	C1187.054321,119.284180 1176.654541,119.284180 1166.282471,119.284180 
	C1166.282471,170.625168 1166.282471,221.681442 1166.282471,272.704987 
	C1176.967651,272.704987 1187.367676,272.704987 1198.000000,272.704987 
	C1198.000000,250.440613 1198.000000,228.470398 1198.000000,205.500427 
M1343.500000,161.000000 
	C1334.001465,161.000000 1324.486572,161.351242 1315.008179,160.914093 
	C1302.185425,160.322708 1292.311768,171.386459 1292.109863,183.303070 
	C1291.729004,205.793182 1291.710815,228.299576 1292.117798,250.788773 
	C1292.332153,262.629883 1302.175415,273.424652 1315.099365,273.126129 
	C1335.585205,272.652985 1356.091553,272.862061 1376.586548,273.057251 
	C1387.085571,273.157227 1396.886108,262.762726 1396.951050,252.703857 
	C1397.103638,229.041794 1396.880127,205.377136 1397.062988,181.715500 
	C1397.129761,173.076950 1387.379395,160.463684 1376.491333,160.905884 
	C1365.843872,161.338303 1355.165039,161.000000 1343.500000,161.000000 
M1580.691162,186.000580 
	C1593.095947,186.000580 1605.500732,186.000580 1618.296265,186.000580 
	C1618.296265,215.438919 1618.296265,244.159027 1618.296265,272.642700 
	C1629.102051,272.642700 1639.500854,272.642700 1650.000000,272.642700 
	C1650.000000,242.316315 1650.185547,212.345352 1649.903809,182.378784 
	C1649.798950,171.230896 1639.252319,160.829086 1628.191650,160.927048 
	C1602.381958,161.155594 1576.568970,161.000000 1550.757324,161.000000 
	C1549.304443,161.000000 1547.851685,161.000000 1546.370972,161.000000 
	C1546.370972,198.587784 1546.370972,235.751801 1546.370972,272.798828 
	C1557.021240,272.798828 1567.299561,272.798828 1578.000000,272.798828 
	C1578.000000,270.986084 1578.000000,269.367004 1578.000000,267.747955 
	C1578.000000,242.102859 1577.968994,216.457657 1578.073975,190.812973 
	C1578.080444,189.208633 1579.151123,187.608658 1580.691162,186.000580 
M1477.482422,248.000000 
	C1469.056396,248.000000 1460.630371,248.000000 1451.805176,248.000000 
	C1451.805176,218.666382 1451.805176,189.940277 1451.805176,161.314301 
	C1440.989624,161.314301 1430.590576,161.314301 1420.000854,161.314301 
	C1420.000854,192.260666 1419.615967,222.900772 1420.223755,253.521179 
	C1420.418701,263.345428 1429.409424,273.108795 1440.749756,273.044983 
	C1466.234863,272.901550 1491.721436,273.000000 1517.207397,273.000000 
	C1518.781250,273.000000 1520.355103,273.000000 1521.629517,273.000000 
	C1521.629517,235.191833 1521.629517,198.137451 1521.629517,161.203918 
	C1510.977539,161.203918 1500.696899,161.203918 1489.412476,161.203918 
	C1489.412476,190.190857 1489.412476,218.981415 1489.412476,248.000000 
	C1485.098145,248.000000 1481.787231,248.000000 1477.482422,248.000000 
M725.272888,229.006622 
	C725.846558,229.610138 726.905579,230.203400 726.918579,230.818771 
	C727.044128,236.762894 726.993896,242.710724 726.993896,249.000000 
	C724.910889,249.000000 723.277588,249.000000 721.644287,249.000000 
	C706.315796,249.000000 690.986755,248.943817 675.659729,249.093079 
	C674.237000,249.106934 672.024536,250.077835 671.541748,251.193893 
	C668.497681,258.231415 665.838806,265.435577 662.890869,273.000000 
	C664.743652,273.000000 666.211853,273.000000 667.680115,273.000000 
	C691.006104,273.000000 714.336487,272.738678 737.655640,273.138580 
	C746.064453,273.282806 755.882812,265.875397 758.196533,257.990814 
	C761.319031,247.350220 760.747375,236.502274 759.611450,226.065140 
	C758.093201,212.115906 748.305481,204.012634 734.183228,204.854050 
	C722.281189,205.563187 710.303345,205.000000 698.245728,205.000000 
	C698.245728,198.134323 698.245728,191.734146 698.245728,185.000000 
	C700.118347,185.000000 701.749512,185.000000 703.380676,185.000000 
	C718.375916,184.999985 733.371460,185.039474 748.366028,184.938599 
	C749.857910,184.928543 752.287598,184.463257 752.682922,183.531143 
	C755.741516,176.318054 758.406555,168.938004 761.240295,161.486420 
	C760.382019,161.257141 759.929932,161.031052 759.477661,161.030655 
	C734.652222,161.008499 709.826233,160.906097 685.001709,161.051285 
	C675.708313,161.105652 666.110229,171.227783 666.016113,180.618927 
	C665.937622,188.448990 666.618530,196.340576 665.864929,204.098221 
	C664.502441,218.122940 676.436707,229.474670 690.820923,229.063705 
	C701.974976,228.745041 713.145386,229.000381 725.272888,229.006622 
M1082.914062,185.999878 
	C1086.855835,185.999878 1090.797485,185.999878 1095.000000,185.999878 
	C1095.000000,188.180634 1095.000000,189.819183 1095.000000,191.457733 
	C1095.000000,211.956345 1094.973022,232.454987 1095.011841,252.953537 
	C1095.030396,262.793579 1104.467163,272.769989 1114.076172,272.964783 
	C1122.405518,273.133636 1130.741577,273.047241 1139.073120,272.946503 
	C1140.262573,272.932129 1142.206909,272.508545 1142.510376,271.754639 
	C1145.601074,264.074402 1148.423828,256.286377 1151.542847,247.935883 
	C1142.924438,247.935883 1135.154297,247.935883 1127.231445,247.935883 
	C1127.231445,227.162933 1127.231445,206.761566 1127.231445,185.999451 
	C1131.082520,185.999451 1134.729492,186.199707 1138.333130,185.892853 
	C1139.626831,185.782715 1141.482056,184.731247 1141.946411,183.630707 
	C1145.065063,176.237579 1147.878174,168.715546 1150.978516,160.752258 
	C1142.720825,160.752258 1134.957886,160.752258 1126.783447,160.752258 
	C1126.783447,155.315765 1126.783447,150.241028 1126.783447,145.337830 
	C1115.947388,145.337830 1105.543457,145.337830 1094.745972,145.337830 
	C1094.745972,150.755554 1094.745972,155.835983 1094.745972,160.889877 
	C1092.691772,160.982437 1091.041870,161.056793 1089.440674,161.128967 
	C1086.494507,168.756866 1083.566406,176.224640 1080.797119,183.750824 
	C1080.602905,184.278870 1081.582764,185.239014 1082.914062,185.999878 
M811.000000,246.500000 
	C811.000000,218.085434 811.000000,189.670868 811.000000,161.293152 
	C800.031433,161.293152 789.633606,161.293152 779.283997,161.293152 
	C779.283997,198.638474 779.283997,235.689926 779.283997,272.706970 
	C789.968323,272.706970 800.366150,272.706970 811.000000,272.706970 
	C811.000000,264.110596 811.000000,255.805298 811.000000,246.500000 
M811.000000,136.466461 
	C811.000000,130.711594 811.000000,124.956711 811.000000,119.305740 
	C799.993042,119.305740 789.601074,119.305740 779.307983,119.305740 
	C779.307983,128.342117 779.307983,137.069443 779.307983,145.692398 
	C790.010498,145.692398 800.402527,145.692398 811.000000,145.692398 
	C811.000000,142.744202 811.000000,140.099533 811.000000,136.466461 
z"/>
<path fill="#1A1D38" opacity="1.000000" stroke="none" 
	d="
M99.666672,1.000000 
	C103.865654,6.050140 101.838326,11.135335 99.951385,16.473000 
	C114.668846,18.936371 126.093529,27.224922 136.520645,37.119003 
	C139.344559,39.798546 140.971725,44.328377 144.179565,45.888985 
	C150.445908,48.937550 152.364273,54.746922 154.279709,60.021130 
	C162.917633,83.805901 183.049866,92.560249 204.666046,98.824425 
	C219.523056,103.129860 234.840103,105.953804 250.065903,108.835609 
	C257.598053,110.261230 265.376495,110.575417 273.064972,110.940987 
	C284.808990,111.499367 296.614563,112.452782 308.316132,111.813232 
	C325.288116,110.885620 342.168335,108.389343 359.129486,107.120781 
	C373.937103,106.013283 388.857025,104.564163 403.628357,105.287186 
	C421.597168,106.166733 439.348297,109.974449 455.176758,119.166565 
	C463.826599,124.189827 471.667908,130.606308 479.867859,136.402985 
	C492.784210,145.533783 506.779968,152.633255 522.322632,155.559418 
	C544.568726,159.747635 567.800781,151.785980 574.264709,124.361671 
	C577.369507,111.189163 578.213806,95.797234 566.679993,84.402458 
	C559.031738,76.846443 549.641968,71.552498 538.780151,71.185593 
	C525.549561,70.738663 512.272949,71.873596 499.015259,71.904167 
	C493.236176,71.917496 487.782654,70.104286 483.907104,65.304985 
	C483.358093,64.625137 483.199005,63.630409 482.546875,62.000000 
	C485.855499,62.000000 488.655884,62.383595 491.312012,61.927265 
	C498.934143,60.617771 506.965912,60.110352 513.993469,57.230206 
	C532.363159,49.701672 549.297424,51.851528 565.234009,62.835640 
	C585.563843,76.847733 594.870667,96.783112 591.730591,120.989296 
	C588.341980,147.111313 572.717651,170.328018 543.486450,176.679306 
	C531.010315,179.390106 518.300415,178.786758 505.956116,175.386185 
	C497.303497,173.002594 488.865112,169.843155 480.317383,167.072433 
	C479.733063,166.883041 479.033966,167.047699 479.716003,167.047699 
	C481.146149,174.895340 484.103119,182.810532 483.672119,190.536728 
	C482.849243,205.286057 480.144501,219.934433 478.122803,234.611176 
	C477.102966,242.015167 474.638367,249.472229 475.127228,256.750793 
	C475.506348,262.395752 479.065338,268.009735 481.891632,273.271820 
	C489.040833,286.582092 498.877197,297.961914 510.353973,307.534698 
	C519.976685,315.561005 530.876465,322.056152 541.349976,329.325806 
	C539.562195,339.182098 537.485718,349.937134 535.692322,360.739136 
	C534.280518,369.242340 533.216187,377.803284 532.005920,386.339722 
	C531.959534,386.666504 532.016541,387.006470 531.997070,387.338654 
	C531.388489,397.702576 531.553223,397.143860 541.579529,400.109344 
	C564.402161,406.859680 587.048096,414.207825 609.753601,421.351898 
	C610.456482,421.573059 611.024048,422.224670 611.461060,422.537140 
	C432.501648,384.950348 254.330292,386.718994 77.127220,435.632935 
	C75.611107,436.000000 74.222221,436.000000 72.528099,435.645508 
	C78.260376,432.618378 84.227753,429.771881 90.347412,427.302856 
	C118.145126,416.087555 146.608932,406.936157 175.766281,399.943298 
	C177.218430,399.595032 179.036102,398.716461 179.719849,397.529602 
	C188.646240,382.034790 190.183609,365.063171 188.785065,347.726410 
	C188.040649,338.498322 186.458389,329.324158 184.957230,320.174408 
	C183.228683,309.638733 181.870499,298.969818 179.116943,288.689453 
	C172.827805,265.209045 160.377274,244.585724 147.671295,224.142670 
	C141.031204,213.459244 133.732803,203.063065 133.909637,189.566391 
	C133.980392,184.165421 134.049377,178.502640 132.604034,173.387115 
	C124.689003,145.373199 116.303337,117.492256 108.122505,89.712135 
	C103.219940,90.902000 103.808983,85.418938 101.743500,83.110519 
	C100.759155,82.010399 100.846367,79.951500 100.112930,76.959015 
	C96.434547,74.203056 90.748726,72.058418 84.611778,73.119705 
	C77.023254,74.432014 69.553581,76.498520 62.093678,78.470413 
	C53.077629,80.853645 44.256386,84.753181 35.114254,85.691505 
	C22.425718,86.993843 11.476495,80.576477 1.000000,74.000000 
	C1.000000,72.933327 1.000000,71.866661 1.379190,70.399826 
	C2.091360,69.994736 2.490506,70.109673 2.747794,69.967644 
	C13.605286,63.974068 24.702188,58.359718 35.195469,51.782665 
	C40.866013,48.228436 45.532978,43.105839 45.103539,35.291668 
	C45.036263,34.067513 46.027546,32.093899 47.064980,31.606184 
	C58.713409,26.130091 67.754539,17.854568 74.593056,7.010991 
	C75.203842,6.042491 76.662338,5.313020 77.853340,5.054975 
	C84.547501,3.604598 91.280350,2.332753 98.000000,0.999999 
	C98.444443,1.000000 98.888893,1.000000 99.666672,1.000000 
M213.223099,247.804749 
	C212.886246,247.664078 212.549393,247.523422 212.212540,247.382767 
	C212.448151,247.946533 212.683746,248.510284 212.999176,249.801300 
	C213.429810,250.469345 214.011444,251.084702 214.266037,251.814194 
	C215.696487,255.912643 220.211609,259.092865 218.365051,264.155457 
	C213.460159,277.602844 212.395279,291.759338 211.171570,305.776581 
	C210.035400,318.791016 210.211014,331.929016 210.035492,345.015656 
	C209.870087,357.348938 210.137573,369.688721 209.913971,382.020172 
	C209.849060,385.599701 208.750076,389.160492 208.098343,392.882751 
	C309.182068,374.437347 409.835205,373.956421 510.432465,392.851471 
	C515.232056,379.601685 512.660767,366.092468 511.781769,352.755005 
	C511.444794,347.642365 508.812408,342.823517 504.066986,339.437897 
	C496.527954,334.059204 489.352203,328.172028 482.010773,322.515503 
	C469.137329,312.596588 455.799347,303.216705 443.519836,292.610840 
	C433.652405,284.088257 424.003204,274.804596 418.951324,262.329376 
	C415.402100,253.564835 413.209534,244.260437 409.924896,235.376877 
	C405.520844,223.465683 401.765747,211.205963 390.691864,203.040314 
	C383.025482,197.387329 374.891693,195.592316 365.831635,197.647720 
	C346.934357,201.934875 330.968933,212.498154 314.539764,222.003967 
	C296.806274,232.264420 279.291687,242.976166 259.761444,249.602051 
	C244.282166,254.853592 228.751999,256.759521 213.223099,247.804749 
z"/>
<path fill="#FFFFFF" opacity="1.000000" stroke="none" 
	d="
M1.000000,74.468658 
	C11.476495,80.576477 22.425718,86.993843 35.114254,85.691505 
	C44.256386,84.753181 53.077629,80.853645 62.093678,78.470413 
	C69.553581,76.498520 77.023254,74.432014 84.611778,73.119705 
	C90.748726,72.058418 96.434547,74.203056 100.112930,76.959015 
	C100.846367,79.951500 100.759155,82.010399 101.743500,83.110519 
	C103.808983,85.418938 103.219940,90.902000 108.122505,89.712135 
	C116.303337,117.492256 124.689003,145.373199 132.604034,173.387115 
	C134.049377,178.502640 133.980392,184.165421 133.909637,189.566391 
	C133.732803,203.063065 141.031204,213.459244 147.671295,224.142670 
	C160.377274,244.585724 172.827805,265.209045 179.116943,288.689453 
	C181.870499,298.969818 183.228683,309.638733 184.957230,320.174408 
	C186.458389,329.324158 188.040649,338.498322 188.785065,347.726410 
	C190.183609,365.063171 188.646240,382.034790 179.719849,397.529602 
	C179.036102,398.716461 177.218430,399.595032 175.766281,399.943298 
	C146.608932,406.936157 118.145126,416.087555 90.347412,427.302856 
	C84.227753,429.771881 78.260376,432.618378 72.111435,435.645508 
	C48.357262,436.000000 24.714521,436.000000 1.000000,436.000000 
	C1.000000,315.645782 1.000000,195.291550 1.000000,74.468658 
z"/>
<path fill="#1A1D38" opacity="1.000000" stroke="none" 
	d="
M1777.000000,272.531342 
	C1749.183228,273.000000 1721.366333,273.008453 1693.549561,272.995483 
	C1683.620483,272.990845 1674.365601,264.928436 1673.035156,254.961716 
	C1672.473267,250.751968 1672.068726,246.487457 1672.045410,242.245346 
	C1671.941162,223.257187 1671.814819,204.265640 1672.071777,185.280396 
	C1672.218506,174.439728 1677.978882,164.642532 1688.780518,161.751450 
	C1690.480347,161.296509 1692.286255,161.037125 1694.044189,161.031601 
	C1710.841431,160.978729 1727.639038,161.000000 1744.856812,161.000000 
	C1744.856812,147.013229 1744.856812,133.278656 1744.856812,119.000000 
	C1755.533447,119.000000 1765.798096,119.000000 1776.531372,119.000000 
	C1777.000000,170.020889 1777.000000,221.041794 1777.000000,272.531342 
M1705.000000,188.659943 
	C1705.000000,208.729340 1705.000000,228.798737 1705.000000,248.649750 
	C1718.754517,248.649750 1731.818359,248.649750 1744.650146,248.649750 
	C1744.650146,227.239639 1744.650146,206.180939 1744.650146,185.000214 
	C1732.316895,185.000214 1720.333252,185.018890 1708.349609,184.981430 
	C1706.399902,184.975342 1704.535522,184.826172 1705.000000,188.659943 
z"/>
<path fill="#FFFFFF" opacity="1.000000" stroke="none" 
	d="
M97.531342,0.999999 
	C91.280350,2.332753 84.547501,3.604598 77.853340,5.054975 
	C76.662338,5.313020 75.203842,6.042491 74.593056,7.010991 
	C67.754539,17.854568 58.713409,26.130091 47.064980,31.606184 
	C46.027546,32.093899 45.036263,34.067513 45.103539,35.291668 
	C45.532978,43.105839 40.866013,48.228436 35.195469,51.782665 
	C24.702188,58.359718 13.605286,63.974068 2.747794,69.967644 
	C2.490506,70.109673 2.091360,69.994736 1.379190,69.999832 
	C1.000000,47.060772 1.000000,24.121542 1.000000,1.000000 
	C33.020664,1.000000 65.041672,1.000000 97.531342,0.999999 
z"/>
<path fill="#1A1D38" opacity="1.000000" stroke="none" 
	d="
M939.000000,174.009216 
	C939.000000,213.174316 939.046631,251.840668 938.958313,290.506714 
	C938.941833,297.722809 937.094543,304.624054 931.100891,309.167572 
	C928.027893,311.497040 923.915771,313.744507 920.244507,313.791718 
	C891.583069,314.159668 862.914734,313.984650 834.248474,313.964539 
	C833.930542,313.964325 833.612793,313.794434 832.767090,313.553192 
	C835.456116,306.180298 838.025696,298.793457 840.949707,291.549683 
	C841.314636,290.645508 843.552246,290.071594 844.925781,290.064453 
	C863.425110,289.968323 881.925049,290.000000 900.424866,290.000000 
	C902.074341,290.000000 903.723816,290.000000 905.686035,290.000000 
	C905.686035,283.407928 905.686035,277.003601 905.686035,270.000000 
	C899.017273,270.000000 892.250610,270.000000 885.483948,270.000000 
	C876.817383,270.000000 868.146362,270.178284 859.485168,269.962158 
	C842.439392,269.536865 833.446289,260.474762 833.089844,243.406189 
	C832.696655,224.581268 832.639771,205.732513 833.125427,186.911911 
	C833.454712,174.150696 837.362000,165.879593 850.074829,161.441925 
	C850.830994,161.177933 851.666992,161.019302 852.466003,161.018707 
	C881.111084,160.997421 909.756104,161.000870 939.000000,161.000870 
	C939.000000,165.308075 939.000000,169.409225 939.000000,174.009216 
M878.511292,246.000000 
	C887.601624,246.000000 896.692017,246.000000 905.703918,246.000000 
	C905.703918,225.344727 905.703918,205.288651 905.703918,185.299866 
	C892.344788,185.299866 879.283875,185.299866 866.296997,185.299866 
	C866.296997,205.657196 866.296997,225.713287 866.296997,246.000000 
	C870.233826,246.000000 873.875732,246.000000 878.511292,246.000000 
z"/>
<path fill="#1A1D38" opacity="1.000000" stroke="none" 
	d="
M962.000000,172.000000 
	C962.000000,154.196075 962.000000,136.892151 962.000000,119.294647 
	C972.965820,119.294647 983.698608,119.294647 994.858459,119.294647 
	C994.858459,132.987289 994.858459,146.723846 994.858459,161.000000 
	C998.368469,161.000000 1001.476074,161.000000 1004.583679,161.000000 
	C1018.078308,161.000000 1031.575806,161.170929 1045.066772,160.945816 
	C1055.829834,160.766235 1064.132812,169.490082 1065.903198,178.695129 
	C1066.763794,183.170532 1066.939087,187.829529 1066.954956,192.407043 
	C1067.047241,219.050171 1067.000000,245.693787 1067.000000,272.668457 
	C1056.110352,272.668457 1045.376343,272.668457 1034.221558,272.668457 
	C1034.221558,244.088287 1034.221558,215.358978 1034.221558,186.315796 
	C1021.077515,186.315796 1008.344788,186.315796 995.191772,186.315796 
	C995.191772,214.941742 995.191772,243.671051 995.191772,272.699097 
	C984.047119,272.699097 973.314148,272.699097 962.000000,272.699097 
	C962.000000,239.335587 962.000000,205.917801 962.000000,172.000000 
z"/>
<path fill="#1A1D38" opacity="1.000000" stroke="none" 
	d="
M1198.000000,206.000305 
	C1198.000000,228.470398 1198.000000,250.440613 1198.000000,272.704987 
	C1187.367676,272.704987 1176.967651,272.704987 1166.282471,272.704987 
	C1166.282471,221.681442 1166.282471,170.625168 1166.282471,119.284180 
	C1176.654541,119.284180 1187.054321,119.284180 1197.882080,119.284180 
	C1197.882080,133.011093 1197.882080,146.748306 1197.882080,161.000000 
	C1214.903442,161.000000 1231.504761,160.970047 1248.105713,161.040924 
	C1250.010376,161.049057 1251.934814,161.522842 1253.812622,161.946701 
	C1263.362183,164.102066 1269.788696,174.024384 1269.881592,182.906525 
	C1270.193237,212.714066 1270.000000,242.526855 1270.000000,272.668701 
	C1259.442871,272.668701 1249.041504,272.668701 1238.217285,272.668701 
	C1238.217285,244.084732 1238.217285,215.354034 1238.217285,186.312653 
	C1224.737061,186.312653 1211.670654,186.312653 1198.000000,186.312653 
	C1198.000000,192.639786 1198.000000,199.070114 1198.000000,206.000305 
z"/>
<path fill="#1A1D38" opacity="1.000000" stroke="none" 
	d="
M1344.000000,161.000000 
	C1355.165039,161.000000 1365.843872,161.338303 1376.491333,160.905884 
	C1387.379395,160.463684 1397.129761,173.076950 1397.062988,181.715500 
	C1396.880127,205.377136 1397.103638,229.041794 1396.951050,252.703857 
	C1396.886108,262.762726 1387.085571,273.157227 1376.586548,273.057251 
	C1356.091553,272.862061 1335.585205,272.652985 1315.099365,273.126129 
	C1302.175415,273.424652 1292.332153,262.629883 1292.117798,250.788773 
	C1291.710815,228.299576 1291.729004,205.793182 1292.109863,183.303070 
	C1292.311768,171.386459 1302.185425,160.322708 1315.008179,160.914093 
	C1324.486572,161.351242 1334.001465,161.000000 1344.000000,161.000000 
M1324.000000,203.500641 
	C1324.000000,218.586487 1324.000000,233.672348 1324.000000,248.706848 
	C1337.975098,248.706848 1351.369019,248.706848 1364.710449,248.706848 
	C1364.710449,227.357010 1364.710449,206.301605 1364.710449,185.293106 
	C1351.025024,185.293106 1337.631104,185.293106 1324.000000,185.293106 
	C1324.000000,191.223267 1324.000000,196.862259 1324.000000,203.500641 
z"/>
<path fill="#1A1D38" opacity="1.000000" stroke="none" 
	d="
M1580.208984,186.003616 
	C1579.151123,187.608658 1578.080444,189.208633 1578.073975,190.812973 
	C1577.968994,216.457657 1578.000000,242.102859 1578.000000,267.747955 
	C1578.000000,269.367004 1578.000000,270.986084 1578.000000,272.798828 
	C1567.299561,272.798828 1557.021240,272.798828 1546.370972,272.798828 
	C1546.370972,235.751801 1546.370972,198.587784 1546.370972,161.000000 
	C1547.851685,161.000000 1549.304443,161.000000 1550.757324,161.000000 
	C1576.568970,161.000000 1602.381958,161.155594 1628.191650,160.927048 
	C1639.252319,160.829086 1649.798950,171.230896 1649.903809,182.378784 
	C1650.185547,212.345352 1650.000000,242.316315 1650.000000,272.642700 
	C1639.500854,272.642700 1629.102051,272.642700 1618.296265,272.642700 
	C1618.296265,244.159027 1618.296265,215.438919 1618.296265,186.000580 
	C1605.500732,186.000580 1593.095947,186.000580 1580.208984,186.003616 
z"/>
<path fill="#1A1D38" opacity="1.000000" stroke="none" 
	d="
M1477.979248,248.000000 
	C1481.787231,248.000000 1485.098145,248.000000 1489.412476,248.000000 
	C1489.412476,218.981415 1489.412476,190.190857 1489.412476,161.203918 
	C1500.696899,161.203918 1510.977539,161.203918 1521.629517,161.203918 
	C1521.629517,198.137451 1521.629517,235.191833 1521.629517,273.000000 
	C1520.355103,273.000000 1518.781250,273.000000 1517.207397,273.000000 
	C1491.721436,273.000000 1466.234863,272.901550 1440.749756,273.044983 
	C1429.409424,273.108795 1420.418701,263.345428 1420.223755,253.521179 
	C1419.615967,222.900772 1420.000854,192.260666 1420.000854,161.314301 
	C1430.590576,161.314301 1440.989624,161.314301 1451.805176,161.314301 
	C1451.805176,189.940277 1451.805176,218.666382 1451.805176,248.000000 
	C1460.630371,248.000000 1469.056396,248.000000 1477.979248,248.000000 
z"/>
<path fill="#1A1D38" opacity="1.000000" stroke="none" 
	d="
M724.790710,229.003601 
	C713.145386,229.000381 701.974976,228.745041 690.820923,229.063705 
	C676.436707,229.474670 664.502441,218.122940 665.864929,204.098221 
	C666.618530,196.340576 665.937622,188.448990 666.016113,180.618927 
	C666.110229,171.227783 675.708313,161.105652 685.001709,161.051285 
	C709.826233,160.906097 734.652222,161.008499 759.477661,161.030655 
	C759.929932,161.031052 760.382019,161.257141 761.240295,161.486420 
	C758.406555,168.938004 755.741516,176.318054 752.682922,183.531143 
	C752.287598,184.463257 749.857910,184.928543 748.366028,184.938599 
	C733.371460,185.039474 718.375916,184.999985 703.380676,185.000000 
	C701.749512,185.000000 700.118347,185.000000 698.245728,185.000000 
	C698.245728,191.734146 698.245728,198.134323 698.245728,205.000000 
	C710.303345,205.000000 722.281189,205.563187 734.183228,204.854050 
	C748.305481,204.012634 758.093201,212.115906 759.611450,226.065140 
	C760.747375,236.502274 761.319031,247.350220 758.196533,257.990814 
	C755.882812,265.875397 746.064453,273.282806 737.655640,273.138580 
	C714.336487,272.738678 691.006104,273.000000 667.680115,273.000000 
	C666.211853,273.000000 664.743652,273.000000 662.890869,273.000000 
	C665.838806,265.435577 668.497681,258.231415 671.541748,251.193893 
	C672.024536,250.077835 674.237000,249.106934 675.659729,249.093079 
	C690.986755,248.943817 706.315796,249.000000 721.644287,249.000000 
	C723.277588,249.000000 724.910889,249.000000 726.993896,249.000000 
	C726.993896,242.710724 727.044128,236.762894 726.918579,230.818771 
	C726.905579,230.203400 725.846558,229.610138 724.790710,229.003601 
z"/>
<path fill="#1A1D38" opacity="1.000000" stroke="none" 
	d="
M1082.465332,185.999054 
	C1081.582764,185.239014 1080.602905,184.278870 1080.797119,183.750824 
	C1083.566406,176.224640 1086.494507,168.756866 1089.440674,161.128967 
	C1091.041870,161.056793 1092.691772,160.982437 1094.745972,160.889877 
	C1094.745972,155.835983 1094.745972,150.755554 1094.745972,145.337830 
	C1105.543457,145.337830 1115.947388,145.337830 1126.783447,145.337830 
	C1126.783447,150.241028 1126.783447,155.315765 1126.783447,160.752258 
	C1134.957886,160.752258 1142.720825,160.752258 1150.978516,160.752258 
	C1147.878174,168.715546 1145.065063,176.237579 1141.946411,183.630707 
	C1141.482056,184.731247 1139.626831,185.782715 1138.333130,185.892853 
	C1134.729492,186.199707 1131.082520,185.999451 1127.231445,185.999451 
	C1127.231445,206.761566 1127.231445,227.162933 1127.231445,247.935883 
	C1135.154297,247.935883 1142.924438,247.935883 1151.542847,247.935883 
	C1148.423828,256.286377 1145.601074,264.074402 1142.510376,271.754639 
	C1142.206909,272.508545 1140.262573,272.932129 1139.073120,272.946503 
	C1130.741577,273.047241 1122.405518,273.133636 1114.076172,272.964783 
	C1104.467163,272.769989 1095.030396,262.793579 1095.011841,252.953537 
	C1094.973022,232.454987 1095.000000,211.956345 1095.000000,191.457733 
	C1095.000000,189.819183 1095.000000,188.180634 1095.000000,185.999878 
	C1090.797485,185.999878 1086.855835,185.999878 1082.465332,185.999054 
z"/>
<path fill="#1A1D38" opacity="1.000000" stroke="none" 
	d="
M811.000000,247.000000 
	C811.000000,255.805298 811.000000,264.110596 811.000000,272.706970 
	C800.366150,272.706970 789.968323,272.706970 779.283997,272.706970 
	C779.283997,235.689926 779.283997,198.638474 779.283997,161.293152 
	C789.633606,161.293152 800.031433,161.293152 811.000000,161.293152 
	C811.000000,189.670868 811.000000,218.085434 811.000000,247.000000 
z"/>
<path fill="#1A1D38" opacity="1.000000" stroke="none" 
	d="
M811.000000,136.960663 
	C811.000000,140.099533 811.000000,142.744202 811.000000,145.692398 
	C800.402527,145.692398 790.010498,145.692398 779.307983,145.692398 
	C779.307983,137.069443 779.307983,128.342117 779.307983,119.305740 
	C789.601074,119.305740 799.993042,119.305740 811.000000,119.305740 
	C811.000000,124.956711 811.000000,130.711594 811.000000,136.960663 
z"/>
<path fill="#FFFFFF" opacity="1.000000" stroke="none" 
	d="
M213.606049,248.245789 
	C228.751999,256.759521 244.282166,254.853592 259.761444,249.602051 
	C279.291687,242.976166 296.806274,232.264420 314.539764,222.003967 
	C330.968933,212.498154 346.934357,201.934875 365.831635,197.647720 
	C374.891693,195.592316 383.025482,197.387329 390.691864,203.040314 
	C401.765747,211.205963 405.520844,223.465683 409.924896,235.376877 
	C413.209534,244.260437 415.402100,253.564835 418.951324,262.329376 
	C424.003204,274.804596 433.652405,284.088257 443.519836,292.610840 
	C455.799347,303.216705 469.137329,312.596588 482.010773,322.515503 
	C489.352203,328.172028 496.527954,334.059204 504.066986,339.437897 
	C508.812408,342.823517 511.444794,347.642365 511.781769,352.755005 
	C512.660767,366.092468 515.232056,379.601685 510.432465,392.851471 
	C409.835205,373.956421 309.182068,374.437347 208.098343,392.882751 
	C208.750076,389.160492 209.849060,385.599701 209.913971,382.020172 
	C210.137573,369.688721 209.870087,357.348938 210.035492,345.015656 
	C210.211014,331.929016 210.035400,318.791016 211.171570,305.776581 
	C212.395279,291.759338 213.460159,277.602844 218.365051,264.155457 
	C220.211609,259.092865 215.696487,255.912643 214.266037,251.814194 
	C214.011444,251.084702 213.429810,250.469345 213.140488,249.238525 
	C213.389877,248.532425 213.497971,248.389114 213.606049,248.245789 
z"/>
<path fill="#FFFFFF" opacity="1.000000" stroke="none" 
	d="
M213.100586,248.874908 
	C212.683746,248.510284 212.448151,247.946533 212.212540,247.382767 
	C212.549393,247.523422 212.886246,247.664078 213.414581,248.025269 
	C213.497971,248.389114 213.389877,248.532425 213.100586,248.874908 
z"/>
<path fill="#FFFFFF" opacity="1.000000" stroke="none" 
	d="
M1705.000244,188.175598 
	C1704.535522,184.826172 1706.399902,184.975342 1708.349609,184.981430 
	C1720.333252,185.018890 1732.316895,185.000214 1744.650146,185.000214 
	C1744.650146,206.180939 1744.650146,227.239639 1744.650146,248.649750 
	C1731.818359,248.649750 1718.754517,248.649750 1705.000000,248.649750 
	C1705.000000,228.798737 1705.000000,208.729340 1705.000244,188.175598 
z"/>
<path fill="#FFFFFF" opacity="1.000000" stroke="none" 
	d="
M878.014404,246.000000 
	C873.875732,246.000000 870.233826,246.000000 866.296997,246.000000 
	C866.296997,225.713287 866.296997,205.657196 866.296997,185.299866 
	C879.283875,185.299866 892.344788,185.299866 905.703918,185.299866 
	C905.703918,205.288651 905.703918,225.344727 905.703918,246.000000 
	C896.692017,246.000000 887.601624,246.000000 878.014404,246.000000 
z"/>
<path fill="#FFFFFF" opacity="1.000000" stroke="none" 
	d="
M1324.000000,203.000946 
	C1324.000000,196.862259 1324.000000,191.223267 1324.000000,185.293106 
	C1337.631104,185.293106 1351.025024,185.293106 1364.710449,185.293106 
	C1364.710449,206.301605 1364.710449,227.357010 1364.710449,248.706848 
	C1351.369019,248.706848 1337.975098,248.706848 1324.000000,248.706848 
	C1324.000000,233.672348 1324.000000,218.586487 1324.000000,203.000946 
z"/>
</svg>